# File created by Blade
# Date/Time:  Fri Jan 16 17:52:57 2015
#---------------------------------------------------------
:version 1.10
:name HOM
:units
  mass 1.0
  length 1.000000
  angle deg
:documentation
     Acclaim Skeleton File
:root
   axis xyz
   order TX TY TZ RX RY RZ
   position 0.000000 0.000000 0.000000
   orientation 0 0 0
:bonedata
   begin
      id 1
      name Spine_dum
      direction 0.000000 1.000000 0.000000
      length 7.170412
      axis 0.0 0.0 0.0 xyz
   end
   begin
      id 2
      name LeftUpLeg_dum
      direction 1.000000 0.000000 0.000000
      length 4.318350
      axis 0.0 0.0 0.0 xyz
   end
   begin
      id 3
      name RightUpLeg_dum
      direction -1.000000 0.000000 0.000000
      length 4.318350
      axis 0.0 0.0 0.0 xyz
   end
   begin
      id 4
      name Spine
      direction 0.000000 1.000000 0.000000
      length 0.000000
      axis 0.0 0.0 0.0 xyz
      dof rx ry rz
   end
   begin
      id 5
      name Spine_dum1
      direction 0.000000 1.000000 0.000000
      length 14.276153
      axis 0.0 0.0 0.0 xyz
   end
   begin
      id 6
      name Spine_dum2
      direction 0.000000 1.000000 0.000000
      length 10.718243
      axis 0.0 0.0 0.0 xyz
   end
   begin
      id 7
      name Spine_dum3
      direction 0.000000 1.000000 0.000000
      length 10.718243
      axis 0.0 0.0 0.0 xyz
   end
   begin
      id 8
      name Head
      direction 0.000000 1.000000 0.000000
      length 4.527550
      axis 0.0 0.0 0.0 xyz
      dof rx ry rz
   end
   begin
      id 9
      name LeftShoulder
      direction 1.000000 0.000000 0.000000
      length 7.058872
      axis 0.0 0.0 -90.0 xyz
      dof rx ry rz
   end
   begin
      id 10
      name LeftArm
      direction 1.000000 0.000000 0.000000
      length 10.955525
      axis 0.0 0.0 -90.0 xyz
      dof rx ry rz
   end
   begin
      id 11
      name LeftForeArm
      direction 1.000000 0.000000 0.000000
      length 8.193716
      axis 0.0 0.0 -90.0 xyz
      dof ry rz rx
   end
   begin
      id 12
      name LeftHand
      direction 0.000000 0.000000 0.000000
      length 0.000000
      axis 0.0 0.0 -90.0 xyz
      dof rx ry rz
   end
   begin
      id 13
      name LeftHand_dum1
      direction 0.000000 0.000000 0.000000
      length 0.000000
      axis 0.0 0.0 -90.0 xyz
   end
   begin
      id 14
      name LeftHand_dum2
      direction 1.000000 0.000000 0.000000
      length 3.937000
      axis 0.0 0.0 -90.0 xyz
   end
   begin
      id 15
      name LeftHandThumb1
      direction 0.000000 0.000000 1.000000
      length 3.937000
      axis 0.0 0.0 -90.0 xyz
      dof rx rz ry
   end
   begin
      id 16
      name RightShoulder
      direction -1.000000 0.000000 0.000000
      length 7.058872
      axis 0.0 0.0 90.0 xyz
      dof rx ry rz
   end
   begin
      id 17
      name RightArm
      direction -1.000000 0.000000 0.000000
      length 10.955525
      axis 0.0 0.0 90.0 xyz
      dof rx ry rz
   end
   begin
      id 18
      name RightForeArm
      direction -1.000000 0.000000 0.000000
      length 8.193716
      axis 0.0 0.0 90.0 xyz
      dof ry rz rx
   end
   begin
      id 19
      name RightHand
      direction 0.000000 0.000000 0.000000
      length 0.000000
      axis 0.0 0.0 90.0 xyz
      dof rx ry rz
   end
   begin
      id 20
      name RightHand_dum1
      direction 0.000000 0.000000 0.000000
      length 0.000000
      axis 0.0 0.0 90.0 xyz
   end
   begin
      id 21
      name RightHand_dum2
      direction -1.000000 0.000000 0.000000
      length 3.937000
      axis 0.0 0.0 90.0 xyz
   end
   begin
      id 22
      name RightHandThumb1
      direction 0.000000 0.000000 1.000000
      length 3.937000
      axis 0.0 0.0 90.0 xyz
      dof rx rz ry
   end
   begin
      id 23
      name LeftUpLeg
      direction 0.000000 -1.000000 0.000000
      length 17.323638
      axis 0.0 0.0 0.0 xyz
      dof rx ry rz
   end
   begin
      id 24
      name LeftLeg
      direction 0.000000 -1.000000 0.000000
      length 16.270368
      axis 0.0 0.0 0.0 xyz
      dof rx ry rz
   end
   begin
      id 25
      name LeftFoot
      direction 0.000000 -0.258819 0.965926
      length 4.922846
      axis 15.0 0.0 0.0 xyz
      dof rx ry rz
   end
   begin
      id 26
      name LeftToeBase
      direction 0.000000 0.000000 1.000000
      length 2.952750
      axis 0.0 0.0 0.0 xyz
      dof rx ry rz
   end
   begin
      id 27
      name RightUpLeg
      direction 0.000000 -1.000000 0.000000
      length 17.323638
      axis 0.0 0.0 0.0 xyz
      dof rx ry rz
   end
   begin
      id 28
      name RightLeg
      direction 0.000000 -1.000000 0.000000
      length 16.270368
      axis 0.0 0.0 0.0 xyz
      dof rx ry rz
   end
   begin
      id 29
      name RightFoot
      direction 0.000000 -0.258819 0.965926
      length 4.922846
      axis 15.0 0.0 0.0 xyz
      dof rx ry rz
   end
   begin
      id 30
      name RightToeBase
      direction 0.000000 0.000000 1.000000
      length 2.952750
      axis 0.0 0.0 0.0 xyz
      dof rx ry rz
   end
:hierarchy
   begin
      root Spine_dum LeftUpLeg_dum RightUpLeg_dum
      Spine_dum Spine
      LeftUpLeg_dum LeftUpLeg
      RightUpLeg_dum RightUpLeg
      Spine Spine_dum1 Spine_dum2 Spine_dum3
      Spine_dum1 Head
      Spine_dum2 LeftShoulder
      Spine_dum3 RightShoulder
      LeftShoulder LeftArm
      LeftArm LeftForeArm
      LeftForeArm LeftHand
      LeftHand LeftHand_dum1 LeftHand_dum2
      LeftHand_dum1 LeftHandThumb1
      RightShoulder RightArm
      RightArm RightForeArm
      RightForeArm RightHand
      RightHand RightHand_dum1 RightHand_dum2
      RightHand_dum1 RightHandThumb1
      LeftUpLeg LeftLeg
      LeftLeg LeftFoot
      LeftFoot LeftToeBase
      RightUpLeg RightLeg
      RightLeg RightFoot
      RightFoot RightToeBase
   end

# File created by Blade
# Date/Time:  Fri Jan 16 17:53:05 2015
# Frame Rate: 120.000 fps
#------------------------------------------------------
:FULLY-SPECIFIED
:DEGREES
580
root -3.821739 35.280534 -10.938448 -2.663387 -5.306445 -9.080247
Spine 4.508945 -4.149750 10.849672
Head 1.688807 5.853059 -5.773234
LeftShoulder -24.969336 16.163796 -9.622447
LeftArm 22.032872 -38.173964 -74.605254
LeftForeArm -3.066267 -0.000000 127.452351
LeftHand 1.815859 0.000000 10.124612
LeftHandThumb1 -26.253704 0.000000 33.147579
RightShoulder -6.040840 -6.766574 -1.177490
RightArm 3.024568 -17.821143 72.690287
RightForeArm -16.192338 0.000000 21.093185
RightHand 0.389908 0.000000 -0.602875
RightHandThumb1 -24.326973 -0.000000 -32.862282
LeftUpLeg 12.547822 4.748753 -1.310165
LeftLeg -9.283718 -0.000000 0.000000
LeftFoot -16.337028 34.213915 -5.520636
LeftToeBase 20.098147 -0.000000 -0.000000
RightUpLeg 2.591071 -1.732167 10.215924
RightLeg 15.027113 -0.000000 -0.000000
RightFoot -21.953060 -23.784427 15.683090
RightToeBase -0.802388 -0.000000 0.000000
581
root -3.823762 35.278249 -10.938594 -2.781717 -5.319025 -9.046262
Spine 4.614895 -4.126396 10.819346
Head 1.696491 5.853587 -5.784197
LeftShoulder -25.003223 16.162719 -9.650342
LeftArm 22.078136 -38.169797 -74.644850
LeftForeArm -3.052659 -0.000000 127.493569
LeftHand 1.757479 0.000000 10.140679
LeftHandThumb1 -26.253704 0.000000 33.147579
RightShoulder -6.039271 -6.752649 -1.175313
RightArm 3.078636 -17.961298 72.671676
RightForeArm -16.195781 -0.000000 21.056417
RightHand 0.459799 0.000000 -0.809641
RightHandThumb1 -24.326973 -0.000000 -32.862282
LeftUpLeg 12.673817 4.771146 -1.327848
LeftLeg -9.307975 -0.000000 0.000000
LeftFoot -16.336587 34.202523 -5.523901
LeftToeBase 20.070102 -0.000000 -0.000000
RightUpLeg 2.596736 -1.609003 10.246178
RightLeg 14.813966 -0.000000 -0.000000
RightFoot -21.548462 -23.041780 15.668206
RightToeBase -0.975260 -0.000000 0.000000
582
root -3.825557 35.275182 -10.939656 -2.880387 -5.333079 -8.996722
Spine 4.688947 -4.083740 10.770668
Head 1.711702 5.872944 -5.786847
LeftShoulder -25.013697 16.165442 -9.658676
LeftArm 22.103948 -38.180264 -74.677857
LeftForeArm -3.097786 -0.000000 127.527365
LeftHand 1.676634 -0.000000 10.262273
LeftHandThumb1 -26.253704 0.000000 33.147579
RightShoulder -6.039221 -6.790236 -1.171391
RightArm 3.147084 -18.030030 72.665979
RightForeArm -16.126677 0.000000 21.057076
RightHand 0.462462 -0.000000 -0.661076
RightHandThumb1 -24.326973 -0.000000 -32.862282
LeftUpLeg 12.772550 4.807033 -1.360024
LeftLeg -9.318765 -0.000000 0.000000
LeftFoot -16.363714 34.157039 -5.569248
LeftToeBase 20.118123 -0.000000 -0.000000
RightUpLeg 2.572621 -1.481369 10.263959
RightLeg 14.648385 -0.000000 -0.000000
RightFoot -21.065357 -22.470379 15.547006
RightToeBase -1.128069 -0.000000 0.000000
583
root -3.826958 35.272285 -10.940106 -2.985154 -5.330211 -8.949780
Spine 4.770431 -4.078331 10.727654
Head 1.711410 5.928589 -5.781999
LeftShoulder -25.043317 16.188133 -9.693697
LeftArm 22.163970 -38.210032 -74.745494
LeftForeArm -3.039676 -0.000000 127.568713
LeftHand 1.689479 -0.000000 10.229857
LeftHandThumb1 -26.253704 0.000000 33.147579
RightShoulder -6.025575 -6.792324 -1.167077
RightArm 3.211089 -18.147516 72.642297
RightForeArm -16.145049 -0.000000 21.023847
RightHand 0.442350 -0.000000 -0.862318
RightHandThumb1 -24.326973 -0.000000 -32.862282
LeftUpLeg 12.873721 4.825039 -1.390800
LeftLeg -9.316444 -0.000000 0.000000
LeftFoot -16.363157 34.126954 -5.571447
LeftToeBase 20.065649 -0.000000 -0.000000
RightUpLeg 2.565927 -1.341368 10.276309
RightLeg 14.495134 -0.000000 -0.000000
RightFoot -20.573143 -21.875131 15.652702
RightToeBase -0.923007 -0.000000 0.000000
584
root -3.828303 35.267620 -10.939703 -3.091831 -5.320534 -8.884703
Spine 4.850799 -4.079047 10.654945
Head 1.709505 5.923686 -5.772919
LeftShoulder -25.073468 16.182099 -9.708065
LeftArm 22.208114 -38.267636 -74.832837
LeftForeArm -3.040023 -0.000000 127.606327
LeftHand 1.739252 -0.000000 10.176521
LeftHandThumb1 -26.253704 0.000000 33.147579
RightShoulder -6.019736 -6.841164 -1.155490
RightArm 3.330255 -18.232610 72.615299
RightForeArm -16.122950 -0.000000 20.971692
RightHand 0.454225 -0.000000 -0.861657
RightHandThumb1 -24.326973 -0.000000 -32.862282
LeftUpLeg 12.976255 4.831982 -1.442146
LeftLeg -9.318298 -0.000000 0.000000
LeftFoot -16.359790 34.117268 -5.565615
LeftToeBase 20.055173 -0.000000 -0.000000
RightUpLeg 2.573781 -1.205335 10.272776
RightLeg 14.325719 -0.000000 -0.000000
RightFoot -19.775409 -21.513107 15.433942
RightToeBase -0.721603 -0.000000 0.000000
585
root -3.829992 35.262158 -10.940693 -3.197851 -5.293844 -8.817082
Spine 4.929874 -4.077896 10.574904
Head 1.721753 5.899561 -5.752647
LeftShoulder -25.082093 16.171126 -9.715752
LeftArm 22.239786 -38.318826 -74.877348
LeftForeArm -3.079455 -0.000000 127.656555
LeftHand 1.728310 -0.000000 10.065425
LeftHandThumb1 -26.253704 0.000000 33.147579
RightShoulder -6.024021 -6.856496 -1.141154
RightArm 3.415895 -18.321774 72.597547
RightForeArm -16.113671 -0.000000 20.932305
RightHand 0.429822 -0.000000 -0.853282
RightHandThumb1 -24.326973 -0.000000 -32.862282
LeftUpLeg 13.071880 4.864900 -1.489459
LeftLeg -9.314735 -0.000000 0.000000
LeftFoot -16.383294 34.050461 -5.588715
LeftToeBase 20.081487 -0.000000 -0.000000
RightUpLeg 2.630948 -1.039556 10.263962
RightLeg 14.075066 -0.000000 -0.000000
RightFoot -18.899667 -21.248566 15.143966
RightToeBase -0.065150 -0.000000 0.000000
586
root -3.832929 35.257255 -10.943750 -3.288255 -5.239215 -8.741394
Spine 4.982966 -4.096387 10.469218
Head 1.755436 5.867907 -5.708080
LeftShoulder -25.089080 16.178680 -9.732442
LeftArm 22.294616 -38.356840 -74.890008
LeftForeArm -3.053978 -0.000000 127.707207
LeftHand 1.749447 -0.000000 10.058493
LeftHandThumb1 -26.253704 0.000000 33.147579
RightShoulder -6.017831 -6.865652 -1.102166
RightArm 3.476748 -18.419580 72.578755
RightForeArm -16.071763 -0.000000 20.905635
RightHand 0.447977 -0.000000 -0.748349
RightHandThumb1 -24.326973 -0.000000 -32.862282
LeftUpLeg 13.137316 4.887138 -1.541334
LeftLeg -9.296800 -0.000000 0.000000
LeftFoot -16.365441 33.985652 -5.555219
LeftToeBase 20.076577 -0.000000 -0.000000
RightUpLeg 2.689414 -0.954747 10.239316
RightLeg 13.791740 -0.000000 -0.000000
RightFoot -17.701075 -21.283580 14.287128
RightToeBase 1.338749 -0.000000 -0.000000
587
root -3.832814 35.250627 -10.943960 -3.382673 -5.188436 -8.649796
Spine 5.028172 -4.096228 10.358793
Head 1.796035 5.828827 -5.675214
LeftShoulder -25.073278 16.162509 -9.723111
LeftArm 22.284144 -38.382161 -74.881363
LeftForeArm -3.064275 -0.000000 127.754198
LeftHand 1.743263 -0.000000 10.175647
LeftHandThumb1 -26.253704 0.000000 33.147579
RightShoulder -6.015199 -6.847061 -1.079574
RightArm 3.496114 -18.525976 72.575433
RightForeArm -15.986175 -0.000000 20.872777
RightHand 0.489382 -0.000000 -1.040143
RightHandThumb1 -24.326973 -0.000000 -32.862282
LeftUpLeg 13.216327 4.927991 -1.613881
LeftLeg -9.290986 -0.000000 0.000000
LeftFoot -16.361239 33.896275 -5.559559
LeftToeBase 20.084037 -0.000000 -0.000000
RightUpLeg 2.753910 -1.049008 10.180086
RightLeg 13.499671 -0.000000 -0.000000
RightFoot -16.532035 -21.609416 12.972940
RightToeBase 2.740195 -0.000000 -0.000000
588
root -3.829252 35.243599 -10.942326 -3.472062 -5.139324 -8.556811
Spine 5.063109 -4.090437 10.262066
Head 1.831884 5.805583 -5.659784
LeftShoulder -25.073113 16.159546 -9.736440
LeftArm 22.306895 -38.421746 -74.912255
LeftForeArm -3.117037 0.000000 127.801983
LeftHand 1.726692 -0.000000 10.033162
LeftHandThumb1 -26.253704 0.000000 33.147579
RightShoulder -6.024028 -6.873523 -1.056185
RightArm 3.551325 -18.557506 72.531327
RightForeArm -15.993161 0.000000 20.859702
RightHand 0.417627 0.000000 -0.594751
RightHandThumb1 -24.326973 -0.000000 -32.862282
LeftUpLeg 13.289179 4.969124 -1.696209
LeftLeg -9.279025 -0.000000 0.000000
LeftFoot -16.355131 33.820149 -5.557296
LeftToeBase 20.026924 -0.000000 -0.000000
RightUpLeg 2.824877 -1.189104 10.103461
RightLeg 13.214160 -0.000000 -0.000000
RightFoot -15.601067 -22.374140 11.422464
RightToeBase 5.217596 -0.000000 -0.000000
